<svg xmlns="http://www.w3.org/2000/svg" width="1200" height="320" viewBox="0 0 1200 320" role="img" aria-label="YuKiKo — AI QQ bot · OneBot + NapCat + LLM 路由 + 插件 + WebUI" font-family="Georgia,'Iowan Old Style','Times New Roman',Times,serif"><rect width="1200" height="320" fill="#0B0A0C"/><text x="34" y="44" font-size="12" font-family="ui-monospace,'Cascadia Mono',Consolas,'SF Mono',monospace" font-weight="400" fill="#6b7280" text-anchor="start" letter-spacing="2.0" opacity="0.9">INK LAB / 08 · pipe · crayon</text><path d="M33.99 56.02 L317.05 58.42 L316.93 58.47 L600.04 54.69 L600.03 54.6 L882.93 54.48 L882.95 54.49 L1166.06 55.97" fill="none" stroke="#6b7280" stroke-width="1.2" stroke-linecap="round" stroke-linejoin="round" opacity="1.0"/><text x="34" y="124" font-size="44" font-family="Georgia,'Iowan Old Style','Times New Roman',Times,serif" font-weight="400" fill="#f0eee6" text-anchor="start">YuKiKo</text><path d="M34.01 136.02 L68.3 136.56 L68.3 136.47 L102.69 137.11 L102.64 137.06 L136.92 133.57 L137.01 133.62 L171.31 136.01" fill="none" stroke="#6b7280" stroke-width="2.4" stroke-linecap="round" stroke-linejoin="round" opacity="1.0"/><text x="34" y="164" font-size="17" font-family="Georgia,'Iowan Old Style','Times New Roman',Times,serif" font-weight="400" fill="#f0eee6" text-anchor="start" font-style="italic" opacity="0.92">AI QQ bot · OneBot + NapCat + LLM 路由 + 插件 +</text><text x="34" y="190" font-size="17" font-family="Georgia,'Iowan Old Style','Times New Roman',Times,serif" font-weight="400" fill="#f0eee6" text-anchor="start" font-style="italic" opacity="0.92">WebUI</text><path d="M33.99 202.06 L229.94 202.05 L229.96 264.01 L34.01 264.0 Z" fill="none" stroke="#f0eee6" stroke-width="1.8" stroke-linecap="round" stroke-linejoin="round" opacity="1.0"/><text x="48" y="226" font-size="12" font-family="ui-monospace,'Cascadia Mono',Consolas,'SF Mono',monospace" font-weight="400" fill="#f0eee6" text-anchor="start" opacity="0.9">onebot</text><path d="M47.99 249.94 L51.31 250.07 L51.24 250.01 L54.43 250.07 L54.55 250.17 L57.73 250.78 L57.7 250.81 L61.06 249.93" fill="none" stroke="#6b7280" stroke-width="2.4" stroke-linecap="round" stroke-linejoin="round" opacity="1.0"/><path d="M68.02 250.04 L71.29 249.46 L71.26 249.46 L74.45 249.62 L74.49 249.59 L77.76 249.73 L77.74 249.7 L81.0 250.07" fill="none" stroke="#6b7280" stroke-width="0.9" stroke-linecap="round" stroke-linejoin="round" opacity="1.0"/><path d="M88.07 249.96 L91.23 249.15 L91.22 249.12 L94.55 249.79 L94.56 249.81 L97.71 250.08 L97.79 250.14 L101.04 250.01" fill="none" stroke="#6b7280" stroke-width="0.9" stroke-linecap="round" stroke-linejoin="round" opacity="1.0"/><path d="M107.97 250.05 L111.31 250.75 L111.23 250.66 L114.56 249.99 L114.53 250.05 L117.79 250.47 L117.81 250.4 L121.03 250.07" fill="none" stroke="#6b7280" stroke-width="0.9" stroke-linecap="round" stroke-linejoin="round" opacity="1.0"/><path d="M127.99 249.95 L131.3 249.77 L131.28 249.73 L134.46 249.74 L134.53 249.73 L137.81 250.28 L137.76 250.38 L141.04 250.04" fill="none" stroke="#6b7280" stroke-width="0.9" stroke-linecap="round" stroke-linejoin="round" opacity="1.0"/><path d="M147.98 250.04 L151.29 250.64 L151.31 250.54 L154.54 250.07 L154.51 250.03 L157.76 249.62 L157.76 249.54 L160.98 250.01" fill="none" stroke="#6b7280" stroke-width="0.9" stroke-linecap="round" stroke-linejoin="round" opacity="1.0"/><path d="M167.98 249.96 L171.3 249.61 L171.25 249.65 L174.53 249.64 L174.48 249.73 L177.68 249.31 L177.71 249.32 L181.07 249.96" fill="none" stroke="#6b7280" stroke-width="0.9" stroke-linecap="round" stroke-linejoin="round" opacity="1.0"/><path d="M188.04 250.03 L191.24 249.37 L191.31 249.44 L194.51 250.33 L194.52 250.29 L197.78 250.02 L197.73 249.97 L200.94 249.98" fill="none" stroke="#6b7280" stroke-width="0.9" stroke-linecap="round" stroke-linejoin="round" opacity="1.0"/><path d="M207.95 249.95 L211.23 249.63 L211.2 249.68 L214.46 250.18 L214.48 250.24 L217.73 249.37 L217.7 249.43 L220.96 250.04" fill="none" stroke="#6b7280" stroke-width="0.9" stroke-linecap="round" stroke-linejoin="round" opacity="1.0"/><path d="M234.07 233.04 L239.52 233.24 L239.57 233.24 L244.93 232.96 L245.01 232.91 L250.48 233.37 L250.51 233.28 L255.94 232.97M256.07 233.04 L254.29 233.67 L254.33 233.66 L252.31 234.69 L252.39 234.63 L250.62 235.14 L250.65 235.05 L248.64 236.22M256.0 232.95 L254.11 231.8 L254.19 231.73 L252.32 231.43 L252.45 231.37 L250.66 230.67 L250.58 230.69 L248.74 229.79" fill="none" stroke="#6b7280" stroke-width="1.4" stroke-linecap="round" stroke-linejoin="round" opacity="1.0"/><path d="M259.93 202.0 L456.04 202.01 L456.03 263.97 L259.93 263.95 Z" fill="none" stroke="#f0eee6" stroke-width="1.8" stroke-linecap="round" stroke-linejoin="round" opacity="1.0"/><text x="274" y="226" font-size="12" font-family="ui-monospace,'Cascadia Mono',Consolas,'SF Mono',monospace" font-weight="400" fill="#f0eee6" text-anchor="start" opacity="0.9">route</text><path d="M274.03 249.94 L277.2 250.41 L277.21 250.42 L280.56 249.77 L280.52 249.8 L283.72 249.71 L283.72 249.79 L286.98 250.01" fill="none" stroke="#6b7280" stroke-width="2.4" stroke-linecap="round" stroke-linejoin="round" opacity="1.0"/><path d="M293.99 249.95 L297.19 249.5 L297.23 249.48 L300.46 249.82 L300.45 249.8 L303.72 250.19 L303.73 250.14 L307.01 249.97" fill="none" stroke="#6b7280" stroke-width="2.4" stroke-linecap="round" stroke-linejoin="round" opacity="1.0"/><path d="M313.93 250.07 L317.19 250.22 L317.26 250.23 L320.52 250.05 L320.55 250.14 L323.8 250.83 L323.72 250.82 L327.0 249.98" fill="none" stroke="#6b7280" stroke-width="2.4" stroke-linecap="round" stroke-linejoin="round" opacity="1.0"/><path d="M333.94 249.95 L337.2 249.79 L337.28 249.8 L340.45 250.28 L340.54 250.17 L343.8 249.88 L343.82 249.91 L347.01 250.0" fill="none" stroke="#6b7280" stroke-width="2.4" stroke-linecap="round" stroke-linejoin="round" opacity="1.0"/><path d="M353.99 249.99 L357.26 249.97 L357.3 249.98 L360.45 250.39 L360.51 250.34 L363.72 249.52 L363.78 249.58 L367.06 250.06" fill="none" stroke="#6b7280" stroke-width="2.4" stroke-linecap="round" stroke-linejoin="round" opacity="1.0"/><path d="M373.96 249.97 L377.19 250.08 L377.3 250.09 L380.49 249.86 L380.52 249.86 L383.75 249.53 L383.77 249.42 L386.97 250.07" fill="none" stroke="#6b7280" stroke-width="2.4" stroke-linecap="round" stroke-linejoin="round" opacity="1.0"/><path d="M394.04 249.97 L397.26 250.14 L397.32 250.17 L400.46 249.95 L400.45 249.87 L403.78 249.51 L403.71 249.53 L406.94 250.06" fill="none" stroke="#6b7280" stroke-width="2.4" stroke-linecap="round" stroke-linejoin="round" opacity="1.0"/><path d="M413.99 250.03 L417.26 249.71 L417.27 249.72 L420.49 249.67 L420.53 249.67 L423.79 250.4 L423.7 250.32 L427.04 250.06" fill="none" stroke="#6b7280" stroke-width="2.4" stroke-linecap="round" stroke-linejoin="round" opacity="1.0"/><path d="M434.05 249.94 L437.2 249.52 L437.31 249.59 L440.5 249.65 L440.54 249.6 L443.7 250.12 L443.78 250.09 L447.07 250.05" fill="none" stroke="#6b7280" stroke-width="0.9" stroke-linecap="round" stroke-linejoin="round" opacity="1.0"/><path d="M460.05 233.07 L465.56 233.01 L465.44 233.09 L471.03 232.83 L470.94 232.83 L476.48 233.17 L476.56 233.25 L481.98 232.98M482.05 233.07 L480.08 233.71 L479.96 233.79 L478.36 234.84 L478.27 234.83 L476.53 235.13 L476.62 235.21 L474.67 236.24M482.0 232.97 L480.14 232.41 L480.12 232.47 L478.24 231.25 L478.27 231.26 L476.63 230.45 L476.61 230.46 L474.7 229.76" fill="none" stroke="#6b7280" stroke-width="1.4" stroke-linecap="round" stroke-linejoin="round" opacity="1.0"/><path d="M485.99 202.0 L682.02 201.95 L681.97 263.98 L486.06 264.01 Z" fill="none" stroke="#f0eee6" stroke-width="1.8" stroke-linecap="round" stroke-linejoin="round" opacity="1.0"/><text x="500" y="226" font-size="12" font-family="ui-monospace,'Cascadia Mono',Consolas,'SF Mono',monospace" font-weight="400" fill="#f0eee6" text-anchor="start" opacity="0.9">llm</text><path d="M499.98 250.07 L503.2 250.19 L503.2 250.22 L506.57 249.92 L506.51 249.89 L509.72 250.64 L509.81 250.61 L512.93 250.01" fill="none" stroke="#6b7280" stroke-width="2.4" stroke-linecap="round" stroke-linejoin="round" opacity="1.0"/><path d="M519.93 250.03 L523.18 250.52 L523.25 250.49 L526.57 249.77 L526.48 249.87 L529.68 250.24 L529.76 250.32 L533.0 249.99" fill="none" stroke="#6b7280" stroke-width="0.9" stroke-linecap="round" stroke-linejoin="round" opacity="1.0"/><path d="M540.0 250.01 L543.2 249.41 L543.3 249.5 L546.51 250.18 L546.45 250.23 L549.68 250.09 L549.71 250.13 L552.95 249.94" fill="none" stroke="#6b7280" stroke-width="0.9" stroke-linecap="round" stroke-linejoin="round" opacity="1.0"/><path d="M559.94 249.96 L563.3 250.47 L563.21 250.52 L566.49 249.75 L566.48 249.78 L569.74 249.78 L569.81 249.82 L573.03 250.02" fill="none" stroke="#6b7280" stroke-width="0.9" stroke-linecap="round" stroke-linejoin="round" opacity="1.0"/><path d="M580.06 249.94 L583.29 250.32 L583.25 250.31 L586.5 250.04 L586.48 249.99 L589.78 250.41 L589.73 250.44 L593.07 249.94" fill="none" stroke="#6b7280" stroke-width="0.9" stroke-linecap="round" stroke-linejoin="round" opacity="1.0"/><path d="M599.97 250.06 L603.27 250.78 L603.32 250.7 L606.46 249.91 L606.5 249.99 L609.71 249.56 L609.82 249.55 L612.97 250.03" fill="none" stroke="#6b7280" stroke-width="0.9" stroke-linecap="round" stroke-linejoin="round" opacity="1.0"/><path d="M620.06 250.02 L623.23 250.64 L623.31 250.6 L626.52 250.31 L626.44 250.19 L629.72 250.0 L629.76 250.02 L633.06 250.0" fill="none" stroke="#6b7280" stroke-width="0.9" stroke-linecap="round" stroke-linejoin="round" opacity="1.0"/><path d="M640.02 249.94 L643.27 249.55 L643.26 249.52 L646.49 250.22 L646.45 250.19 L649.79 250.78 L649.69 250.8 L653.02 249.99" fill="none" stroke="#6b7280" stroke-width="0.9" stroke-linecap="round" stroke-linejoin="round" opacity="1.0"/><path d="M659.98 249.94 L663.28 250.2 L663.23 250.27 L666.48 250.28 L666.49 250.29 L669.75 249.44 L669.8 249.46 L672.99 250.01" fill="none" stroke="#6b7280" stroke-width="0.9" stroke-linecap="round" stroke-linejoin="round" opacity="1.0"/><path d="M686.0 233.05 L691.44 233.48 L691.55 233.42 L697.02 233.11 L697.04 233.21 L702.54 232.73 L702.46 232.76 L708.07 233.02M708.0 233.05 L706.05 233.36 L706.17 233.3 L704.35 234.46 L704.37 234.55 L702.52 235.73 L702.45 235.76 L700.76 236.27M708.0 233.04 L706.24 232.11 L706.27 232.07 L704.31 231.33 L704.31 231.46 L702.64 230.6 L702.66 230.58 L700.68 229.73" fill="none" stroke="#6b7280" stroke-width="1.4" stroke-linecap="round" stroke-linejoin="round" opacity="1.0"/><path d="M711.93 201.93 L908.04 202.07 L908.06 263.96 L711.96 263.95 Z" fill="none" stroke="#f0eee6" stroke-width="1.8" stroke-linecap="round" stroke-linejoin="round" opacity="1.0"/><text x="726" y="226" font-size="12" font-family="ui-monospace,'Cascadia Mono',Consolas,'SF Mono',monospace" font-weight="400" fill="#f0eee6" text-anchor="start" opacity="0.9">plugin</text><path d="M725.94 250.03 L729.27 250.31 L729.21 250.24 L732.5 249.92 L732.53 249.83 L735.78 250.68 L735.7 250.67 L739.04 249.99" fill="none" stroke="#6b7280" stroke-width="2.4" stroke-linecap="round" stroke-linejoin="round" opacity="1.0"/><path d="M746.04 250.05 L749.23 249.97 L749.32 249.98 L752.5 250.28 L752.52 250.39 L755.75 250.35 L755.74 250.34 L759.02 249.93" fill="none" stroke="#6b7280" stroke-width="0.9" stroke-linecap="round" stroke-linejoin="round" opacity="1.0"/><path d="M766.05 249.93 L769.27 250.08 L769.26 250.07 L772.45 250.07 L772.52 250.07 L775.7 250.67 L775.8 250.65 L779.07 250.06" fill="none" stroke="#6b7280" stroke-width="0.9" stroke-linecap="round" stroke-linejoin="round" opacity="1.0"/><path d="M786.07 250.04 L789.27 250.4 L789.32 250.39 L792.43 249.92 L792.51 249.87 L795.73 250.63 L795.76 250.54 L798.94 249.97" fill="none" stroke="#6b7280" stroke-width="0.9" stroke-linecap="round" stroke-linejoin="round" opacity="1.0"/><path d="M806.05 250.07 L809.31 250.05 L809.19 250.13 L812.53 249.69 L812.44 249.68 L815.73 250.36 L815.81 250.44 L818.98 249.98" fill="none" stroke="#6b7280" stroke-width="0.9" stroke-linecap="round" stroke-linejoin="round" opacity="1.0"/><path d="M826.0 250.05 L829.19 250.84 L829.3 250.78 L832.52 250.22 L832.54 250.32 L835.79 249.51 L835.71 249.54 L839.07 250.02" fill="none" stroke="#6b7280" stroke-width="0.9" stroke-linecap="round" stroke-linejoin="round" opacity="1.0"/><path d="M846.0 249.95 L849.21 250.75 L849.3 250.68 L852.43 249.96 L852.56 249.9 L855.79 249.63 L855.7 249.66 L859.05 250.04" fill="none" stroke="#6b7280" stroke-width="0.9" stroke-linecap="round" stroke-linejoin="round" opacity="1.0"/><path d="M866.0 249.97 L869.31 249.45 L869.29 249.5 L872.45 250.12 L872.48 250.13 L875.76 250.08 L875.74 250.09 L879.01 250.01" fill="none" stroke="#6b7280" stroke-width="0.9" stroke-linecap="round" stroke-linejoin="round" opacity="1.0"/><path d="M886.0 250.04 L889.22 250.21 L889.24 250.17 L892.46 249.91 L892.46 250.03 L895.72 250.08 L895.74 250.07 L898.98 249.98" fill="none" stroke="#6b7280" stroke-width="0.9" stroke-linecap="round" stroke-linejoin="round" opacity="1.0"/><path d="M912.0 232.95 L917.46 233.44 L917.55 233.36 L922.93 232.99 L923.06 232.93 L928.54 232.77 L928.45 232.79 L934.05 233.04M934.0 232.95 L932.16 233.43 L932.25 233.35 L930.23 234.69 L930.36 234.63 L928.45 235.55 L928.37 235.57 L926.74 236.3M933.98 233.05 L932.25 232.22 L932.25 232.26 L930.28 231.3 L930.25 231.27 L928.74 230.59 L928.72 230.61 L926.76 229.79" fill="none" stroke="#6b7280" stroke-width="1.4" stroke-linecap="round" stroke-linejoin="round" opacity="1.0"/><path d="M938.03 202.05 L1133.98 202.01 L1133.95 264.0 L938.04 263.94 Z" fill="none" stroke="#f0eee6" stroke-width="1.8" stroke-linecap="round" stroke-linejoin="round" opacity="1.0"/><text x="952" y="226" font-size="12" font-family="ui-monospace,'Cascadia Mono',Consolas,'SF Mono',monospace" font-weight="400" fill="#f0eee6" text-anchor="start" opacity="0.9">webui</text><path d="M951.98 250.05 L955.23 249.91 L955.23 249.96 L958.47 250.21 L958.44 250.19 L961.81 249.88 L961.8 249.9 L965.07 250.05" fill="none" stroke="#6b7280" stroke-width="2.4" stroke-linecap="round" stroke-linejoin="round" opacity="1.0"/><path d="M972.04 249.97 L975.31 250.4 L975.26 250.47 L978.43 249.83 L978.49 249.83 L981.73 250.52 L981.73 250.57 L985.03 250.05" fill="none" stroke="#6b7280" stroke-width="2.4" stroke-linecap="round" stroke-linejoin="round" opacity="1.0"/><path d="M992.04 250.02 L995.21 249.65 L995.2 249.67 L998.45 249.94 L998.57 249.98 L1001.76 249.65 L1001.74 249.7 L1004.96 250.03" fill="none" stroke="#6b7280" stroke-width="2.4" stroke-linecap="round" stroke-linejoin="round" opacity="1.0"/><path d="M1012.0 249.97 L1015.32 249.31 L1015.21 249.34 L1018.56 249.98 L1018.48 249.97 L1021.69 249.97 L1021.82 250.02 L1025.03 250.03" fill="none" stroke="#6b7280" stroke-width="2.4" stroke-linecap="round" stroke-linejoin="round" opacity="1.0"/><path d="M1031.97 249.94 L1035.25 250.84 L1035.2 250.78 L1038.46 250.13 L1038.44 250.14 L1041.79 249.9 L1041.8 249.85 L1044.94 249.97" fill="none" stroke="#6b7280" stroke-width="2.4" stroke-linecap="round" stroke-linejoin="round" opacity="1.0"/><path d="M1052.03 249.94 L1055.32 250.29 L1055.32 250.23 L1058.5 250.18 L1058.48 250.21 L1061.69 249.61 L1061.82 249.65 L1064.96 250.07" fill="none" stroke="#6b7280" stroke-width="2.4" stroke-linecap="round" stroke-linejoin="round" opacity="1.0"/><path d="M1072.05 250.03 L1075.23 249.58 L1075.3 249.67 L1078.45 249.77 L1078.56 249.75 L1081.78 249.64 L1081.71 249.62 L1085.06 249.95" fill="none" stroke="#6b7280" stroke-width="2.4" stroke-linecap="round" stroke-linejoin="round" opacity="1.0"/><path d="M1092.05 250.02 L1095.32 250.64 L1095.19 250.64 L1098.54 250.11 L1098.5 250.05 L1101.81 250.02 L1101.72 250.11 L1104.99 249.94" fill="none" stroke="#6b7280" stroke-width="2.4" stroke-linecap="round" stroke-linejoin="round" opacity="1.0"/><path d="M1112.03 249.97 L1115.31 249.31 L1115.22 249.34 L1118.55 249.75 L1118.47 249.87 L1121.71 249.48 L1121.69 249.36 L1124.94 249.99" fill="none" stroke="#6b7280" stroke-width="2.4" stroke-linecap="round" stroke-linejoin="round" opacity="1.0"/><text x="34" y="292" font-size="15" font-family="ui-monospace,'Cascadia Mono',Consolas,'SF Mono',monospace" font-weight="400" fill="#6b7280" text-anchor="start" opacity="0.9">$</text><text x="52" y="292" font-size="14" font-family="ui-monospace,'Cascadia Mono',Consolas,'SF Mono',monospace" font-weight="400" fill="#f0eee6" text-anchor="start" opacity="0.9">bash &lt;(curl -fsSL https://raw.githubusercontent.com/dwgx/…</text><path d="M11.97 11.96 L1187.98 11.97 L1188.03 308.0 L12.03 307.99 Z" fill="none" stroke="#f0eee6" stroke-width="1.6" stroke-linecap="round" stroke-linejoin="round" opacity="1.0"/><path d="M13.94 10.93 L1189.96 10.96 L1190.06 307.0 L14.05 306.98 Z" transform="translate(1.6 1.2)" fill="none" stroke="#f0eee6" stroke-width="1.1" stroke-linecap="round" stroke-linejoin="round" opacity="0.22"/></svg>